<?xml version="1.0" standalone="no"?>
<svg xmlns="http://www.w3.org/2000/svg" viewBox="0 0 254.641 29" width="254.641" height="29"><g fill="#0e5d1d" color="#0e5d1d" transform="translate(0, 0) scale(0.5576924)"><svg width="52.0" height="52.0" x="0.0" y="0.0" viewBox="0 0 52 52"><path fill="currentColor" fill-rule="evenodd" d="M35.604 29.304l-3.67-6.302 4.956-8.626 8.687 14.928h-9.973zm-7.279 0l2.875-4.956 2.875 4.956h-5.75zm-5.017 0h-6.546l3.242-5.69 3.304 5.69zm-17.252 0l8.626-14.928 4.588 7.892-4.037 7.036H6.056zm31.017-17.436c-.06-.122-.183-.122-.245 0L31.2 21.595l-5.628-9.727c-.062-.122-.184-.122-.245 0l-5.2 9.054-5.2-9.054c-.06-.122-.184-.122-.245 0L3.854 30.405v.183c0 .061.061.061.122.061h21.412c.061 0 .122 0 .122-.06v-.184l-4.65-8.137 4.59-7.892 4.954 8.626-4.282 7.464v.183c0 .062.062.062.122.062h21.412c.062 0 .123 0 .123-.062v-.183L37.073 11.868zM3.059 32.24c-.551-2.019-.918-4.16-.918-6.424 0-13.03 10.584-23.675 23.675-23.675 13.031 0 23.676 10.584 23.676 23.675 0 2.203-.306 4.344-.918 6.424H3.059zm44.475 2.936H4.099c-.245-.489-.429-1.04-.612-1.59h44.659c-.184.55-.428 1.101-.612 1.59zm-1.53 2.998H5.628c-.306-.49-.612-1.04-.856-1.59h42.089c-.245.55-.55 1.04-.857 1.59zm-2.202 2.937H7.77c-.428-.49-.856-1.04-1.223-1.591h38.48c-.367.55-.795 1.101-1.224 1.59zm-2.998 2.997H10.767c-.612-.49-1.163-1.04-1.713-1.59H42.58c-.551.55-1.163 1.04-1.775 1.59zm-4.588 2.937H15.355c-.918-.49-1.835-.98-2.753-1.59h26.306c-.795.61-1.712 1.1-2.692 1.59zm-10.4 2.447c-2.447 0-4.772-.367-6.973-1.04H32.73a23.34 23.34 0 0 1-6.914 1.04zm0-49.492C11.562 0 0 11.624 0 25.816c0 14.255 11.562 25.817 25.816 25.817 7.892 0 14.927-3.548 19.699-9.177.062-.06.122-.122.184-.183 3.732-4.466 5.934-10.217 5.934-16.457C51.633 11.624 40.009 0 25.816 0z"></path></svg></g><line x1="41" y1="1" x2="41" y2="28" stroke="#0e5d1d" stroke-linecap="round"></line><path fill="#0e5d1d" fill-rule="nonzero" d="M4.70 17.21L4.70 17.21Q3.41 17.21 2.34 16.55Q1.27 15.89 0.64 14.80Q0 13.70 0 12.38L0 12.38L0 11.28Q0 11.16 0.12 11.16L0.12 11.16L2.81 11.16Q2.90 11.16 2.90 11.28L2.90 11.28L2.90 12.38Q2.90 13.18 3.43 13.74Q3.96 14.30 4.70 14.30L4.70 14.30Q5.45 14.30 5.98 13.73Q6.50 13.15 6.50 12.38L6.50 12.38Q6.50 11.50 5.35 10.85L5.35 10.85Q4.97 10.63 4.15 10.18Q3.34 9.72 2.62 9.31L2.62 9.31Q1.30 8.54 0.66 7.38Q0.02 6.22 0.02 4.75L0.02 4.75Q0.02 3.41 0.67 2.34Q1.32 1.27 2.39 0.65Q3.46 0.02 4.70 0.02L4.70 0.02Q5.98 0.02 7.04 0.66Q8.11 1.30 8.75 2.36Q9.38 3.43 9.38 4.75L9.38 4.75L9.38 6.72Q9.38 6.82 9.29 6.82L9.29 6.82L6.60 6.82Q6.50 6.82 6.50 6.72L6.50 6.72L6.48 4.75Q6.48 3.91 5.95 3.38Q5.42 2.86 4.70 2.86L4.70 2.86Q3.96 2.86 3.43 3.42Q2.90 3.98 2.90 4.75L2.90 4.75Q2.90 5.54 3.24 6.07Q3.58 6.60 4.46 7.08L4.46 7.08Q4.58 7.15 4.93 7.33Q5.28 7.51 5.69 7.74Q6.10 7.97 6.42 8.14Q6.74 8.30 6.82 8.35L6.82 8.35Q8.02 9.02 8.71 10.00Q9.41 10.97 9.41 12.38L9.41 12.38Q9.41 13.75 8.77 14.84Q8.14 15.94 7.07 16.57Q6 17.21 4.70 17.21ZM13.90 16.97L11.18 16.97Q11.09 16.97 11.09 16.85L11.09 16.85L11.14 0.38Q11.14 0.26 11.23 0.26L11.23 0.26L13.92 0.26Q14.02 0.26 14.02 0.38L14.02 0.38L14.02 6.07L17.78 0.36Q17.86 0.26 17.95 0.26L17.95 0.26L20.71 0.26Q20.81 0.26 20.76 0.36L20.76 0.36L16.61 6.98L21.26 16.87Q21.31 16.97 21.14 16.97L21.14 16.97L18.22 16.97Q18.10 16.97 18.07 16.87L18.07 16.87L14.83 9.82L13.99 11.14L13.99 16.85Q13.99 16.97 13.90 16.97L13.90 16.97ZM25.18 16.97L22.46 16.97Q22.34 16.97 22.34 16.85L22.34 16.85L22.37 0.36Q22.37 0.26 22.46 0.26L22.46 0.26L25.15 0.26Q25.25 0.26 25.25 0.36L25.25 0.36L25.27 16.85Q25.27 16.97 25.18 16.97L25.18 16.97ZM26.57 16.85L26.57 16.85L29.54 0.36Q29.57 0.26 29.66 0.26L29.66 0.26L33.14 0.26Q33.24 0.26 33.26 0.36L33.26 0.36L36.12 16.85Q36.14 16.97 36.02 16.97L36.02 16.97L33.36 16.97Q33.26 16.97 33.24 16.85L33.24 16.85L32.98 15.10L29.71 15.10L29.45 16.85Q29.42 16.97 29.33 16.97L29.33 16.97L26.66 16.97Q26.57 16.97 26.57 16.85ZM31.27 5.78L30.19 12.53L32.50 12.53L31.51 5.78L31.37 4.90L31.27 5.78ZM41.59 16.97L38.88 16.97Q38.78 16.97 38.78 16.85L38.78 16.85L38.78 3.17L35.66 3.17Q35.54 3.17 35.54 3.05L35.54 3.05L35.57 0.36Q35.57 0.26 35.66 0.26L35.66 0.26L44.78 0.26Q44.90 0.26 44.90 0.36L44.90 0.36L44.90 3.05Q44.90 3.17 44.81 3.17L44.81 3.17L41.66 3.17L41.69 16.85Q41.69 16.97 41.59 16.97L41.59 16.97ZM50.28 17.21L50.28 17.21Q48.98 17.21 47.92 16.55Q46.85 15.89 46.20 14.80Q45.55 13.70 45.55 12.38L45.55 12.38L45.58 4.78Q45.58 3.46 46.21 2.38Q46.85 1.30 47.93 0.65Q49.01 0 50.28 0L50.28 0Q51.58 0 52.63 0.65Q53.69 1.30 54.32 2.38Q54.96 3.46 54.96 4.78L54.96 4.78L54.98 12.38Q54.98 13.70 54.35 14.80Q53.71 15.89 52.64 16.55Q51.58 17.21 50.28 17.21ZM50.28 14.30L50.28 14.30Q51.00 14.30 51.54 13.72Q52.08 13.13 52.08 12.38L52.08 12.38L52.06 4.78Q52.06 3.98 51.55 3.43Q51.05 2.88 50.28 2.88L50.28 2.88Q49.54 2.88 49.01 3.42Q48.48 3.96 48.48 4.78L48.48 4.78L48.48 12.38Q48.48 13.18 49.01 13.74Q49.54 14.30 50.28 14.30ZM61.25 17.21L61.25 17.21Q59.95 17.21 58.88 16.55Q57.82 15.89 57.17 14.80Q56.52 13.70 56.52 12.38L56.52 12.38L56.54 4.78Q56.54 3.46 57.18 2.38Q57.82 1.30 58.90 0.65Q59.98 0 61.25 0L61.25 0Q62.54 0 63.60 0.65Q64.66 1.30 65.29 2.38Q65.93 3.46 65.93 4.78L65.93 4.78L65.95 12.38Q65.95 13.70 65.32 14.80Q64.68 15.89 63.61 16.55Q62.54 17.21 61.25 17.21ZM61.25 14.30L61.25 14.30Q61.97 14.30 62.51 13.72Q63.05 13.13 63.05 12.38L63.05 12.38L63.02 4.78Q63.02 3.98 62.52 3.43Q62.02 2.88 61.25 2.88L61.25 2.88Q60.50 2.88 59.98 3.42Q59.45 3.96 59.45 4.78L59.45 4.78L59.45 12.38Q59.45 13.18 59.98 13.74Q60.50 14.30 61.25 14.30ZM70.58 16.97L67.87 16.97Q67.78 16.97 67.78 16.85L67.78 16.85L67.82 0.38Q67.82 0.26 67.92 0.26L67.92 0.26L70.61 0.26Q70.70 0.26 70.70 0.38L70.70 0.38L70.70 6.07L74.47 0.36Q74.54 0.26 74.64 0.26L74.64 0.26L77.40 0.26Q77.50 0.26 77.45 0.36L77.45 0.36L73.30 6.98L77.95 16.87Q78 16.97 77.83 16.97L77.83 16.97L74.90 16.97Q74.78 16.97 74.76 16.87L74.76 16.87L71.52 9.82L70.68 11.14L70.68 16.85Q70.68 16.97 70.58 16.97L70.58 16.97ZM90.43 16.97L82.68 16.97Q82.58 16.97 82.58 16.85L82.58 16.85L82.61 0.38Q82.61 0.26 82.73 0.26L82.73 0.26L85.39 0.26Q85.51 0.26 85.51 0.38L85.51 0.38L85.49 14.02L90.43 14.02Q90.55 14.02 90.55 14.14L90.55 14.14L90.55 16.85Q90.55 16.97 90.43 16.97L90.43 16.97ZM91.30 16.85L91.30 16.85L94.27 0.36Q94.30 0.26 94.39 0.26L94.39 0.26L97.87 0.26Q97.97 0.26 97.99 0.36L97.99 0.36L100.85 16.85Q100.87 16.97 100.75 16.97L100.75 16.97L98.09 16.97Q97.99 16.97 97.97 16.85L97.97 16.85L97.70 15.10L94.44 15.10L94.18 16.85Q94.15 16.97 94.06 16.97L94.06 16.97L91.39 16.97Q91.30 16.97 91.30 16.85ZM96.00 5.78L94.92 12.53L97.22 12.53L96.24 5.78L96.10 4.90L96.00 5.78ZM105.17 16.97L102.46 16.97Q102.36 16.97 102.36 16.85L102.36 16.85L102.41 0.38Q102.41 0.26 102.50 0.26L102.50 0.26L105.19 0.26Q105.29 0.26 105.29 0.38L105.29 0.38L105.29 6.07L109.06 0.36Q109.13 0.26 109.22 0.26L109.22 0.26L111.98 0.26Q112.08 0.26 112.03 0.36L112.03 0.36L107.88 6.98L112.54 16.87Q112.58 16.97 112.42 16.97L112.42 16.97L109.49 16.97Q109.37 16.97 109.34 16.87L109.34 16.87L106.10 9.82L105.26 11.14L105.26 16.85Q105.26 16.97 105.17 16.97L105.17 16.97ZM121.46 16.97L113.71 16.97Q113.62 16.97 113.62 16.85L113.62 16.85L113.64 0.36Q113.64 0.26 113.74 0.26L113.74 0.26L121.44 0.26Q121.54 0.26 121.54 0.38L121.54 0.38L121.54 3.07Q121.54 3.17 121.44 3.17L121.44 3.17L116.52 3.17L116.52 6.91L121.44 6.91Q121.54 6.91 121.54 7.01L121.54 7.01L121.56 9.72Q121.56 9.82 121.46 9.82L121.46 9.82L116.52 9.82L116.52 14.02L121.46 14.02Q121.56 14.02 121.56 14.14L121.56 14.14L121.56 16.87Q121.56 16.97 121.46 16.97L121.46 16.97ZM131.66 17.21L131.66 17.21Q130.34 17.21 129.28 16.55Q128.21 15.89 127.58 14.78Q126.96 13.68 126.96 12.31L126.96 12.31L126.98 4.82Q126.98 3.50 127.60 2.41Q128.21 1.32 129.28 0.66Q130.34 0 131.66 0L131.66 0Q132.98 0 134.04 0.65Q135.10 1.30 135.72 2.39Q136.34 3.48 136.34 4.82L136.34 4.82L136.34 5.93Q136.34 6.02 136.25 6.02L136.25 6.02L133.56 6.02Q133.46 6.02 133.46 5.93L133.46 5.93L133.46 4.82Q133.46 4.03 132.95 3.46Q132.43 2.88 131.66 2.88L131.66 2.88Q130.80 2.88 130.34 3.47Q129.89 4.06 129.89 4.82L129.89 4.82L129.89 12.31Q129.89 13.20 130.40 13.75Q130.92 14.30 131.66 14.30L131.66 14.30Q132.43 14.30 132.95 13.69Q133.46 13.08 133.46 12.31L133.46 12.31L133.46 11.21Q133.46 11.11 133.56 11.11L133.56 11.11L136.27 11.11Q136.37 11.11 136.37 11.21L136.37 11.21L136.37 12.31Q136.37 13.68 135.73 14.78Q135.10 15.89 134.04 16.55Q132.98 17.21 131.66 17.21ZM140.93 16.97L138.22 16.97Q138.12 16.97 138.12 16.85L138.12 16.85L138.14 0.36Q138.14 0.26 138.26 0.26L138.26 0.26L140.93 0.26Q141.05 0.26 141.05 0.36L141.05 0.36L141.02 6.89L144.62 6.89L144.62 0.36Q144.62 0.26 144.72 0.26L144.72 0.26L147.38 0.26Q147.50 0.26 147.50 0.36L147.50 0.36L147.55 16.85Q147.55 16.97 147.43 16.97L147.43 16.97L144.74 16.97Q144.62 16.97 144.62 16.85L144.62 16.85L144.62 9.79L141.02 9.79L141.02 16.85Q141.02 16.97 140.93 16.97L140.93 16.97ZM148.70 16.85L148.70 16.85L151.68 0.36Q151.70 0.26 151.80 0.26L151.80 0.26L155.28 0.26Q155.38 0.26 155.40 0.36L155.40 0.36L158.26 16.85Q158.28 16.97 158.16 16.97L158.16 16.97L155.50 16.97Q155.40 16.97 155.38 16.85L155.38 16.85L155.11 15.10L151.85 15.10L151.58 16.85Q151.56 16.97 151.46 16.97L151.46 16.97L148.80 16.97Q148.70 16.97 148.70 16.85ZM153.41 5.78L152.33 12.53L154.63 12.53L153.65 5.78L153.50 4.90L153.41 5.78ZM162.58 16.97L159.86 16.97Q159.77 16.97 159.77 16.85L159.77 16.85L159.82 0.36Q159.82 0.26 159.91 0.26L159.91 0.26L162.84 0.26Q162.94 0.26 163.01 0.36L163.01 0.36L165.19 3.53L167.38 0.36Q167.45 0.26 167.54 0.26L167.54 0.26L170.50 0.26Q170.59 0.26 170.59 0.36L170.59 0.36L170.64 16.85Q170.64 16.97 170.54 16.97L170.54 16.97L167.83 16.97Q167.74 16.97 167.74 16.85L167.74 16.85L167.71 4.61L165.19 8.26L162.70 4.61L162.67 16.85Q162.67 16.97 162.58 16.97L162.58 16.97ZM177.05 16.97L172.75 16.97Q172.66 16.97 172.66 16.85L172.66 16.85L172.70 0.36Q172.70 0.26 172.80 0.26L172.80 0.26L177.41 0.26Q178.78 0.26 179.86 0.92Q180.94 1.58 181.56 2.66Q182.18 3.74 182.18 5.02L182.18 5.02Q182.18 6.05 181.72 6.94Q181.25 7.82 180.60 8.38L180.60 8.38Q181.30 9.07 181.68 9.98Q182.06 10.90 182.06 11.90L182.06 11.90Q182.06 13.30 181.39 14.45Q180.72 15.60 179.58 16.28Q178.44 16.97 177.05 16.97L177.05 16.97ZM175.58 3.12L175.58 6.89L177.41 6.89Q178.25 6.89 178.76 6.30Q179.28 5.71 179.28 5.02L179.28 5.02Q179.28 4.25 178.73 3.68Q178.18 3.12 177.41 3.12L177.41 3.12L175.58 3.12ZM175.58 9.79L175.56 14.04L177.05 14.04Q177.91 14.04 178.54 13.40Q179.16 12.77 179.16 11.90L179.16 11.90Q179.16 11.04 178.54 10.42Q177.91 9.79 177.05 9.79L177.05 9.79L175.58 9.79ZM191.64 16.97L183.89 16.97Q183.79 16.97 183.79 16.85L183.79 16.85L183.82 0.36Q183.82 0.26 183.91 0.26L183.91 0.26L191.62 0.26Q191.71 0.26 191.71 0.38L191.71 0.38L191.71 3.07Q191.71 3.17 191.62 3.17L191.62 3.17L186.70 3.17L186.70 6.91L191.62 6.91Q191.71 6.91 191.71 7.01L191.71 7.01L191.74 9.72Q191.74 9.82 191.64 9.82L191.64 9.82L186.70 9.82L186.70 14.02L191.64 14.02Q191.74 14.02 191.74 14.14L191.74 14.14L191.74 16.87Q191.74 16.97 191.64 16.97L191.64 16.97ZM196.68 16.97L193.97 16.97Q193.87 16.97 193.87 16.85L193.87 16.85L193.92 0.36Q193.92 0.26 194.02 0.26L194.02 0.26L198.86 0.26Q200.16 0.26 201.25 0.90Q202.34 1.54 202.99 2.60Q203.64 3.67 203.64 5.02L203.64 5.02Q203.64 5.90 203.38 6.61Q203.11 7.32 202.75 7.81Q202.39 8.30 202.10 8.54L202.10 8.54Q203.40 9.98 203.40 11.93L203.40 11.93L203.42 16.85Q203.42 16.97 203.30 16.97L203.30 16.97L200.59 16.97Q200.50 16.97 200.50 16.90L200.50 16.90L200.50 11.93Q200.50 11.06 199.88 10.43Q199.27 9.79 198.38 9.79L198.38 9.79L196.80 9.79L196.78 16.85Q196.78 16.97 196.68 16.97L196.68 16.97ZM196.80 3.14L196.80 6.91L198.86 6.91Q199.61 6.91 200.18 6.36Q200.76 5.81 200.76 5.02L200.76 5.02Q200.76 4.25 200.20 3.70Q199.63 3.14 198.86 3.14L198.86 3.14L196.80 3.14Z" transform="translate(51, 5.897)"></path></svg>