<?xml version="1.0" standalone="no"?>
<svg xmlns="http://www.w3.org/2000/svg" viewBox="0 0 241 69" width="241" height="69"><g fill="#b1a06e" color="#b1a06e" transform="translate(98.337 0) scale(0.44) "><svg width="100.0" height="100.0" x="0.0" y="0.0" viewBox="0 0 100 100"><g><path d="M50,81.164l-1.511-1.565c-0.136-0.141-3.352-3.494-6.584-8.907c-3.006-5.032-6.589-12.875-6.589-21.657   s3.583-16.625,6.589-21.657c3.233-5.413,6.449-8.767,6.584-8.907L50,16.904l1.512,1.565c0.135,0.141,3.351,3.494,6.584,8.907   c3.006,5.032,6.589,12.875,6.589,21.657s-3.583,16.625-6.589,21.657c-3.233,5.413-6.449,8.767-6.584,8.907L50,81.164z    M50.002,23.135c-3.223,3.954-10.485,14.166-10.485,25.899c0,11.765,7.255,21.952,10.48,25.899   c3.224-3.955,10.484-14.167,10.484-25.899C60.482,37.27,53.227,27.082,50.002,23.135z"></path></g><g><path d="M58.28,83.096c-1.002,0-1.89-0.721-2.068-1.742c-0.199-1.144,0.567-2.231,1.71-2.43c0.168-0.03,17.139-3.137,25.987-15.256   c6.938-9.503,7.084-22.01,6.807-27.099c-3.978,1.039-12.473,3.813-19.226,9.805c-0.868,0.771-2.196,0.691-2.966-0.177   c-0.77-0.868-0.691-2.196,0.177-2.967c10.012-8.885,22.995-11.226,23.542-11.32l2.144-0.373l0.298,2.155   c0.026,0.193,0.646,4.798,0.066,11.076c-0.54,5.837-2.27,14.284-7.448,21.377c-5.179,7.094-12.697,11.314-18.092,13.607   c-5.803,2.465-10.377,3.277-10.569,3.311C58.521,83.085,58.4,83.096,58.28,83.096z"></path></g><g><path d="M41.719,83.096c-0.12,0-0.241-0.011-0.363-0.032c-0.192-0.033-4.767-0.846-10.569-3.311   c-5.396-2.293-12.914-6.514-18.092-13.607c-5.178-7.093-6.908-15.54-7.448-21.377c-0.581-6.278,0.04-10.883,0.066-11.076   l0.298-2.155l2.144,0.373c0.548,0.095,13.531,2.436,23.542,11.32c0.868,0.771,0.947,2.099,0.177,2.967   c-0.771,0.868-2.099,0.947-2.967,0.177c-6.772-6.01-15.247-8.772-19.221-9.808C9.015,41.66,9.17,54.19,16.089,63.668   c8.875,12.156,25.818,15.226,25.988,15.256c1.144,0.198,1.909,1.286,1.71,2.43C43.609,82.375,42.722,83.096,41.719,83.096z"></path></g></svg></g><path fill="#e9e9e9" fill-rule="nonzero" d="M12.67 0.14L12.65 1.01Q12.65 1.97 12.82 3.98L12.82 3.98Q12.31 4.22 11.62 4.20L11.62 4.20Q11.57 2.76 10.92 2.02Q10.27 1.27 8.90 1.27L8.90 1.27L7.63 1.27L7.63 13.39Q7.63 14.23 7.78 14.65Q7.92 15.07 8.32 15.25Q8.71 15.43 9.50 15.48L9.50 15.48Q9.62 15.82 9.62 16.51L9.62 16.51Q8.09 16.44 6.48 16.44L6.48 16.44Q4.68 16.44 3.34 16.51L3.34 16.51Q3.34 15.82 3.46 15.48L3.46 15.48Q4.25 15.43 4.66 15.25Q5.06 15.07 5.22 14.64Q5.38 14.21 5.38 13.39L5.38 13.39L5.38 1.27L4.15 1.27Q3.05 1.27 2.45 1.62Q1.85 1.97 1.60 2.56Q1.34 3.14 1.15 4.20L1.15 4.20Q0.36 4.20 0 3.98L0 3.98Q0.38 1.82 0.38 0.14L0.38 0.14Q1.73 0.22 6.50 0.22L6.50 0.22Q11.35 0.22 12.67 0.14L12.67 0.14ZM25.06 13.03Q25.70 13.15 26.11 13.56L26.11 13.56Q25.68 14.69 25.46 16.46L25.46 16.46L20.83 16.44Q17.38 16.44 15.26 16.49L15.26 16.49Q15.26 15.74 15.38 15.41L15.38 15.41Q15.98 15.36 16.28 15.22Q16.58 15.07 16.70 14.69Q16.82 14.30 16.82 13.54L16.82 13.54L16.82 7.22Q16.82 6.53 16.69 6.17Q16.56 5.81 16.26 5.66Q15.96 5.52 15.38 5.47L15.38 5.47Q15.26 5.11 15.26 4.39L15.26 4.39Q16.99 4.44 19.03 4.44L19.03 4.44Q23.45 4.44 24.94 4.39L24.94 4.39Q25.20 6.65 25.39 7.37L25.39 7.37Q24.98 7.63 24.31 7.63L24.31 7.63Q24.22 6.62 23.48 6.05Q22.75 5.47 20.90 5.47L20.90 5.47L19.03 5.47L19.03 9.89L20.23 9.89Q21.50 9.89 22.00 9.60Q22.49 9.31 22.51 8.54L22.51 8.54Q23.04 8.38 23.62 8.38L23.62 8.38Q23.57 8.98 23.57 10.39L23.57 10.39Q23.57 11.93 23.62 12.48L23.62 12.48Q22.97 12.48 22.56 12.34L22.56 12.34Q22.49 11.54 22.00 11.26Q21.50 10.97 20.23 10.97L20.23 10.97L19.03 10.97L19.03 13.49Q19.03 14.26 19.19 14.65Q19.34 15.05 19.74 15.20Q20.14 15.36 20.93 15.36L20.93 15.36L21.07 15.36Q22.46 15.36 23.22 15.12Q23.98 14.88 24.35 14.41Q24.72 13.94 25.06 13.03L25.06 13.03ZM46.73 15.48Q46.85 15.86 46.85 16.49L46.85 16.49Q45.55 16.44 44.16 16.44L44.16 16.44Q42.91 16.44 41.52 16.49L41.52 16.49Q41.52 16.01 41.64 15.48L41.64 15.48Q42.43 15.41 42.72 15.18Q43.01 14.95 43.01 14.30L43.01 14.30Q43.01 14.14 42.91 13.27L42.91 13.27L42.17 7.56L37.90 16.13Q37.51 16.27 36.96 16.27L36.96 16.27L32.52 7.61L31.85 12.67Q31.78 13.32 31.78 13.78L31.78 13.78Q31.78 14.71 32.10 15.07Q32.42 15.43 33.22 15.48L33.22 15.48Q33.34 15.86 33.34 16.49L33.34 16.49Q32.04 16.44 31.06 16.44L31.06 16.44Q30 16.44 28.90 16.49L28.90 16.49Q28.90 15.86 29.02 15.48L29.02 15.48Q29.59 15.43 29.92 15.19Q30.24 14.95 30.42 14.36Q30.60 13.78 30.72 12.62L30.72 12.62L31.39 7.34Q31.42 7.18 31.42 6.86L31.42 6.86Q31.42 6.05 31.09 5.76Q30.77 5.47 29.98 5.47L29.98 5.47Q29.86 5.04 29.86 4.39L29.86 4.39Q30.77 4.44 31.61 4.44L31.61 4.44Q32.28 4.44 33.34 4.39L33.34 4.39L38.02 13.39L42.46 4.39Q43.51 4.44 44.26 4.44L44.26 4.44Q44.83 4.44 45.98 4.39L45.98 4.39Q45.98 5.09 45.86 5.47L45.86 5.47Q45.14 5.47 44.78 5.80Q44.42 6.12 44.42 6.89L44.42 6.89Q44.42 7.20 44.45 7.39L44.45 7.39L45.19 13.06Q45.34 14.09 45.49 14.57Q45.65 15.05 45.92 15.24Q46.20 15.43 46.73 15.48L46.73 15.48ZM55.39 11.16Q56.66 11.16 57.47 10.54Q58.27 9.91 58.27 8.47L58.27 8.47Q58.27 7.10 57.42 6.30Q56.57 5.50 54.82 5.50L54.82 5.50Q54.36 5.50 53.76 5.64L53.76 5.64L53.76 13.37Q53.76 14.50 54.19 14.93Q54.62 15.36 55.68 15.41L55.68 15.41Q55.80 15.77 55.80 16.49L55.80 16.49Q54.46 16.44 53.02 16.44L53.02 16.44Q51.19 16.44 49.99 16.49L49.99 16.49Q49.99 15.74 50.11 15.41L50.11 15.41Q50.95 15.36 51.25 15.01Q51.55 14.66 51.55 13.63L51.55 13.63L51.55 7.22Q51.55 6.53 51.43 6.17Q51.31 5.81 51.01 5.66Q50.71 5.52 50.11 5.47L50.11 5.47Q49.99 5.11 49.99 4.39L49.99 4.39Q52.25 4.44 52.94 4.44L52.94 4.44L55.82 4.39Q58.30 4.39 59.45 5.42Q60.60 6.46 60.60 8.06L60.60 8.06Q60.60 9.22 60.05 10.18Q59.50 11.14 58.40 11.71Q57.31 12.29 55.78 12.29L55.78 12.29Q54.84 12.29 54.31 12.12L54.31 12.12Q54.26 11.78 54.26 11.62L54.26 11.62Q54.26 11.30 54.34 11.09L54.34 11.09Q54.70 11.16 55.39 11.16L55.39 11.16ZM69.55 15.36Q70.68 15.36 71.34 15.13Q72 14.90 72.40 14.41Q72.79 13.92 73.15 13.03L73.15 13.03Q73.80 13.15 74.21 13.56L74.21 13.56Q73.78 14.69 73.56 16.46L73.56 16.46L69.31 16.44Q65.86 16.44 63.74 16.49L63.74 16.49Q63.74 15.74 63.86 15.41L63.86 15.41Q64.44 15.36 64.75 15.22Q65.06 15.07 65.20 14.69Q65.33 14.30 65.33 13.54L65.33 13.54L65.33 7.22Q65.33 6.53 65.20 6.17Q65.06 5.81 64.76 5.66Q64.46 5.52 63.86 5.47L63.86 5.47Q63.77 5.09 63.77 4.39L63.77 4.39Q65.50 4.44 66.43 4.44L66.43 4.44Q67.42 4.44 69.10 4.39L69.10 4.39Q69.10 5.11 68.98 5.47L68.98 5.47Q68.14 5.52 67.84 5.87Q67.54 6.22 67.54 7.25L67.54 7.25L67.54 13.49Q67.54 14.26 67.68 14.65Q67.82 15.05 68.22 15.20Q68.62 15.36 69.41 15.36L69.41 15.36L69.55 15.36ZM86.78 13.03Q87.43 13.15 87.84 13.56L87.84 13.56Q87.41 14.69 87.19 16.46L87.19 16.46L82.56 16.44Q79.10 16.44 76.99 16.49L76.99 16.49Q76.99 15.74 77.11 15.41L77.11 15.41Q77.71 15.36 78.01 15.22Q78.31 15.07 78.43 14.69Q78.55 14.30 78.55 13.54L78.55 13.54L78.55 7.22Q78.55 6.53 78.42 6.17Q78.29 5.81 77.99 5.66Q77.69 5.52 77.11 5.47L77.11 5.47Q76.99 5.11 76.99 4.39L76.99 4.39Q78.72 4.44 80.76 4.44L80.76 4.44Q85.18 4.44 86.66 4.39L86.66 4.39Q86.93 6.65 87.12 7.37L87.12 7.37Q86.71 7.63 86.04 7.63L86.04 7.63Q85.94 6.62 85.21 6.05Q84.48 5.47 82.63 5.47L82.63 5.47L80.76 5.47L80.76 9.89L81.96 9.89Q83.23 9.89 83.72 9.60Q84.22 9.31 84.24 8.54L84.24 8.54Q84.77 8.38 85.34 8.38L85.34 8.38Q85.30 8.98 85.30 10.39L85.30 10.39Q85.30 11.93 85.34 12.48L85.34 12.48Q84.70 12.48 84.29 12.34L84.29 12.34Q84.22 11.54 83.72 11.26Q83.23 10.97 81.96 10.97L81.96 10.97L80.76 10.97L80.76 13.49Q80.76 14.26 80.92 14.65Q81.07 15.05 81.47 15.20Q81.86 15.36 82.66 15.36L82.66 15.36L82.80 15.36Q84.19 15.36 84.95 15.12Q85.70 14.88 86.08 14.41Q86.45 13.94 86.78 13.03L86.78 13.03ZM97.22 3.26Q97.22 2.06 96.88 1.64Q96.53 1.22 95.57 1.18L95.57 1.18Q95.45 0.84 95.45 0.14L95.45 0.14Q96.77 0.22 98.35 0.22L98.35 0.22Q99.82 0.22 101.26 0.14L101.26 0.14Q101.26 0.84 101.14 1.18L101.14 1.18Q100.18 1.22 99.83 1.64Q99.48 2.06 99.48 3.26L99.48 3.26L99.48 13.39Q99.48 14.59 99.83 15.01Q100.18 15.43 101.14 15.48L101.14 15.48Q101.26 15.82 101.26 16.51L101.26 16.51Q99.82 16.44 98.35 16.44L98.35 16.44Q96.67 16.44 95.45 16.51L95.45 16.51Q95.45 15.82 95.57 15.48L95.57 15.48Q96.53 15.43 96.88 15.01Q97.22 14.59 97.22 13.39L97.22 13.39L97.22 3.26ZM116.06 4.44Q116.98 4.44 118.08 4.39L118.08 4.39Q118.08 5.11 117.98 5.47L117.98 5.47Q117.48 5.52 117.22 5.74Q116.95 5.95 116.84 6.47Q116.74 6.98 116.74 7.99L116.74 7.99L116.74 16.46Q116.42 16.61 115.75 16.61L115.75 16.61L107.14 7.08L107.14 12.84Q107.14 13.87 107.27 14.40Q107.40 14.93 107.71 15.14Q108.02 15.36 108.62 15.41L108.62 15.41Q108.74 15.79 108.74 16.49L108.74 16.49Q107.45 16.44 106.61 16.44L106.61 16.44Q105.48 16.44 104.42 16.49L104.42 16.49Q104.42 15.79 104.54 15.41L104.54 15.41Q105.14 15.36 105.44 15.14Q105.74 14.93 105.88 14.40Q106.01 13.87 106.01 12.84L106.01 12.84L106.01 5.83L105.98 5.81Q105.82 5.64 105.55 5.58Q105.29 5.52 104.54 5.47L104.54 5.47Q104.42 5.04 104.42 4.39L104.42 4.39Q105.29 4.44 106.10 4.44L106.10 4.44Q106.85 4.44 107.62 4.39L107.62 4.39L115.61 13.34L115.61 7.99Q115.61 6.98 115.48 6.47Q115.34 5.95 115.03 5.74Q114.72 5.52 114.10 5.47L114.10 5.47Q114 4.92 114 4.39L114 4.39Q115.20 4.44 116.06 4.44L116.06 4.44ZM133.37 4.44Q134.28 4.44 135.38 4.39L135.38 4.39Q135.38 5.11 135.29 5.47L135.29 5.47Q134.78 5.52 134.52 5.74Q134.26 5.95 134.15 6.47Q134.04 6.98 134.04 7.99L134.04 7.99L134.04 16.46Q133.73 16.61 133.06 16.61L133.06 16.61L124.44 7.08L124.44 12.84Q124.44 13.87 124.57 14.40Q124.70 14.93 125.02 15.14Q125.33 15.36 125.93 15.41L125.93 15.41Q126.05 15.79 126.05 16.49L126.05 16.49Q124.75 16.44 123.91 16.44L123.91 16.44Q122.78 16.44 121.73 16.49L121.73 16.49Q121.73 15.79 121.85 15.41L121.85 15.41Q122.45 15.36 122.75 15.14Q123.05 14.93 123.18 14.40Q123.31 13.87 123.31 12.84L123.31 12.84L123.31 5.83L123.29 5.81Q123.12 5.64 122.86 5.58Q122.59 5.52 121.85 5.47L121.85 5.47Q121.73 5.04 121.73 4.39L121.73 4.39Q122.59 4.44 123.41 4.44L123.41 4.44Q124.15 4.44 124.92 4.39L124.92 4.39L132.91 13.34L132.91 7.99Q132.91 6.98 132.78 6.47Q132.65 5.95 132.34 5.74Q132.02 5.52 131.40 5.47L131.40 5.47Q131.30 4.92 131.30 4.39L131.30 4.39Q132.50 4.44 133.37 4.44L133.37 4.44ZM153.98 14.06Q154.68 14.62 155.20 14.78Q155.71 14.95 156.82 15.02L156.82 15.02Q156.82 15.72 156.67 16.27L156.67 16.27Q156 16.27 155.00 16.37Q154.01 16.46 153.48 16.61L153.48 16.61Q152.98 16.03 151.90 15.00L151.90 15.00Q150.96 15.86 149.99 16.24Q149.02 16.61 147.82 16.61L147.82 16.61Q145.54 16.61 144.42 15.58Q143.30 14.54 143.30 12.94L143.30 12.94Q143.30 11.62 144.05 10.69Q144.79 9.77 146.11 9.10L146.11 9.10Q145.20 7.75 145.20 6.55L145.20 6.55Q145.20 5.23 146.17 4.46Q147.14 3.70 149.04 3.70L149.04 3.70Q150.55 3.70 151.85 4.27L151.85 4.27Q151.73 5.04 151.73 5.90L151.73 5.90Q151.73 6.48 151.75 6.77L151.75 6.77Q151.22 6.94 150.48 6.94L150.48 6.94Q150.41 5.81 149.98 5.30Q149.54 4.80 148.73 4.80L148.73 4.80Q148.01 4.80 147.56 5.16Q147.12 5.52 147.12 6.19L147.12 6.19Q147.12 6.77 147.47 7.38Q147.82 7.99 148.58 8.86L148.58 8.86Q149.33 9.67 150.44 10.79Q151.56 11.90 152.57 12.82L152.57 12.82Q153.53 11.42 153.79 10.61L153.79 10.61Q153.86 10.34 153.86 10.18L153.86 10.18Q153.86 9.77 153.50 9.55Q153.14 9.34 152.26 9.22L152.26 9.22Q152.09 8.62 152.09 8.26L152.09 8.26Q152.93 8.30 154.30 8.30L154.30 8.30Q155.42 8.30 156.41 8.26L156.41 8.26Q156.41 8.76 156.31 9.22L156.31 9.22Q155.64 9.41 155.38 9.67Q155.11 9.94 154.85 10.61L154.85 10.61Q154.49 11.47 154.24 11.96Q153.98 12.46 153.29 13.49L153.29 13.49L153.98 14.06ZM148.42 15.22Q149.78 15.22 151.10 14.26L151.10 14.26L150.53 13.70Q148.42 11.74 147.67 10.97L147.67 10.97Q147.14 10.44 146.62 9.79L146.62 9.79Q145.99 10.27 145.66 10.84Q145.32 11.40 145.32 12.22L145.32 12.22Q145.32 13.54 146.17 14.38Q147.02 15.22 148.42 15.22L148.42 15.22ZM169.44 16.66Q168.05 16.66 166.94 16.28Q165.84 15.91 164.57 15.12L164.57 15.12Q164.78 13.78 164.78 11.71L164.78 11.71Q165.34 11.57 166.08 11.57L166.08 11.57Q166.18 13.49 167.05 14.50Q167.93 15.50 169.78 15.50L169.78 15.50Q171.34 15.50 172.09 14.82Q172.85 14.14 172.85 13.01L172.85 13.01Q172.85 12.07 172.37 11.42Q171.89 10.78 171.19 10.36Q170.50 9.94 169.25 9.36L169.25 9.36Q167.81 8.66 166.94 8.11Q166.08 7.56 165.47 6.64Q164.86 5.71 164.86 4.32L164.86 4.32Q164.86 2.30 166.15 1.15Q167.45 0 169.68 0L169.68 0Q170.86 0 171.94 0.30Q173.02 0.60 173.69 1.06L173.69 1.06Q173.69 3.19 173.83 4.22L173.83 4.22Q173.30 4.44 172.49 4.44L172.49 4.44Q172.15 2.47 171.48 1.76Q170.81 1.06 169.66 1.06L169.66 1.06Q168.38 1.06 167.66 1.68Q166.94 2.30 166.94 3.43L166.94 3.43Q166.94 4.37 167.44 5.04Q167.93 5.71 168.64 6.14Q169.34 6.58 170.59 7.20L170.59 7.20Q172.01 7.87 172.86 8.42Q173.71 8.98 174.31 9.86Q174.91 10.75 174.91 12.05L174.91 12.05Q174.91 13.30 174.32 14.34Q173.74 15.38 172.50 16.02Q171.26 16.66 169.44 16.66L169.44 16.66ZM184.27 16.61Q182.30 16.61 181.16 16.14Q180.02 15.67 179.53 14.72Q179.04 13.78 179.04 12.26L179.04 12.26L179.04 7.27Q179.04 6.53 178.94 6.17Q178.85 5.81 178.60 5.68Q178.34 5.54 177.79 5.47L177.79 5.47Q177.67 5.09 177.67 4.39L177.67 4.39Q178.82 4.44 180.17 4.44L180.17 4.44Q181.51 4.44 182.81 4.39L182.81 4.39Q182.81 5.02 182.71 5.47L182.71 5.47Q182.04 5.54 181.75 5.68Q181.46 5.81 181.36 6.16Q181.25 6.50 181.25 7.27L181.25 7.27L181.25 11.98Q181.25 13.68 182.03 14.54Q182.81 15.41 184.73 15.41L184.73 15.41Q185.30 15.41 185.90 15.23Q186.50 15.05 186.94 14.69L186.94 14.69Q187.39 14.28 187.60 13.60Q187.80 12.91 187.80 11.57L187.80 11.57L187.80 7.80Q187.80 6.89 187.69 6.42Q187.58 5.95 187.27 5.75Q186.96 5.54 186.34 5.47L186.34 5.47Q186.24 4.90 186.24 4.39L186.24 4.39Q187.20 4.44 188.26 4.44L188.26 4.44Q189.19 4.44 190.30 4.39L190.30 4.39Q190.30 4.99 190.18 5.47L190.18 5.47Q189.43 5.54 189.18 6.00Q188.93 6.46 188.93 7.70L188.93 7.70L188.93 11.59Q188.93 13.20 188.68 14.12Q188.42 15.05 187.70 15.62L187.70 15.62Q186.50 16.61 184.27 16.61L184.27 16.61ZM193.58 16.49Q193.58 15.74 193.70 15.41L193.70 15.41Q194.30 15.36 194.60 15.22Q194.90 15.07 195.02 14.71Q195.14 14.35 195.14 13.63L195.14 13.63L195.14 7.22Q195.14 6.53 195.02 6.17Q194.90 5.81 194.60 5.66Q194.30 5.52 193.70 5.47L193.70 5.47Q193.58 5.11 193.58 4.39L193.58 4.39Q195.12 4.44 196.27 4.44L196.27 4.44Q197.23 4.44 198.91 4.39L198.91 4.39Q198.91 5.14 198.82 5.47L198.82 5.47Q197.95 5.52 197.65 5.86Q197.35 6.19 197.35 7.22L197.35 7.22L197.35 13.63Q197.35 14.66 197.65 15.01Q197.95 15.36 198.82 15.41L198.82 15.41Q198.91 15.77 198.91 16.49L198.91 16.49Q197.28 16.44 196.27 16.44L196.27 16.44Q195.07 16.44 193.58 16.49L193.58 16.49ZM213.22 4.39Q213.14 5.69 213.38 7.51L213.38 7.51Q212.88 7.73 212.21 7.73L212.21 7.73Q212.16 6.58 211.60 6.02Q211.03 5.47 209.83 5.47L209.83 5.47L208.78 5.47L208.78 13.70Q208.78 14.45 208.91 14.80Q209.04 15.14 209.39 15.29Q209.74 15.43 210.46 15.48L210.46 15.48Q210.58 15.77 210.58 16.49L210.58 16.49Q208.80 16.44 207.67 16.44L207.67 16.44Q206.28 16.44 204.70 16.49L204.70 16.49Q204.70 15.77 204.82 15.48L204.82 15.48Q205.54 15.43 205.91 15.29Q206.28 15.14 206.42 14.78Q206.57 14.42 206.57 13.70L206.57 13.70L206.57 5.47L205.58 5.47Q204.62 5.47 204.11 5.72Q203.59 5.98 203.35 6.43Q203.11 6.89 202.94 7.73L202.94 7.73Q202.18 7.73 201.82 7.51L201.82 7.51Q202.18 5.88 202.18 4.39L202.18 4.39Q203.42 4.44 207.67 4.44L207.67 4.44Q211.99 4.44 213.22 4.39L213.22 4.39ZM226.10 13.03Q226.75 13.15 227.16 13.56L227.16 13.56Q226.73 14.69 226.51 16.46L226.51 16.46L221.88 16.44Q218.42 16.44 216.31 16.49L216.31 16.49Q216.31 15.74 216.43 15.41L216.43 15.41Q217.03 15.36 217.33 15.22Q217.63 15.07 217.75 14.69Q217.87 14.30 217.87 13.54L217.87 13.54L217.87 7.22Q217.87 6.53 217.74 6.17Q217.61 5.81 217.31 5.66Q217.01 5.52 216.43 5.47L216.43 5.47Q216.31 5.11 216.31 4.39L216.31 4.39Q218.04 4.44 220.08 4.44L220.08 4.44Q224.50 4.44 225.98 4.39L225.98 4.39Q226.25 6.65 226.44 7.37L226.44 7.37Q226.03 7.63 225.36 7.63L225.36 7.63Q225.26 6.62 224.53 6.05Q223.80 5.47 221.95 5.47L221.95 5.47L220.08 5.47L220.08 9.89L221.28 9.89Q222.55 9.89 223.04 9.60Q223.54 9.31 223.56 8.54L223.56 8.54Q224.09 8.38 224.66 8.38L224.66 8.38Q224.62 8.98 224.62 10.39L224.62 10.39Q224.62 11.93 224.66 12.48L224.66 12.48Q224.02 12.48 223.61 12.34L223.61 12.34Q223.54 11.54 223.04 11.26Q222.55 10.97 221.28 10.97L221.28 10.97L220.08 10.97L220.08 13.49Q220.08 14.26 220.24 14.65Q220.39 15.05 220.79 15.20Q221.18 15.36 221.98 15.36L221.98 15.36L222.12 15.36Q223.51 15.36 224.27 15.12Q225.02 14.88 225.40 14.41Q225.77 13.94 226.10 13.03L226.10 13.03ZM235.44 16.61Q234.12 16.61 233.05 16.34Q231.98 16.08 230.74 15.55L230.74 15.55Q231.00 13.94 230.93 12.77L230.93 12.77Q231.46 12.60 232.22 12.60L232.22 12.60Q232.27 14.09 233.17 14.76Q234.07 15.43 235.70 15.43L235.70 15.43Q237.10 15.43 237.90 15.00Q238.70 14.57 238.70 13.85L238.70 13.85Q238.70 13.34 238.31 12.97Q237.91 12.60 237.35 12.35Q236.78 12.10 235.70 11.71L235.70 11.71Q234.22 11.21 233.32 10.76Q232.42 10.32 231.76 9.54Q231.10 8.76 231.10 7.58L231.10 7.58Q231.10 5.98 232.31 5.14Q233.52 4.30 235.63 4.30L235.63 4.30Q236.76 4.30 237.88 4.51Q238.99 4.73 239.62 5.06L239.62 5.06Q239.59 5.33 239.59 5.88L239.59 5.88Q239.59 6.96 239.74 7.58L239.74 7.58Q239.23 7.85 238.42 7.85L238.42 7.85Q238.08 6.48 237.32 5.94Q236.57 5.40 235.46 5.40L235.46 5.40Q234.41 5.40 233.75 5.76Q233.09 6.12 233.09 6.82L233.09 6.82Q233.09 7.61 233.86 8.09Q234.62 8.57 236.26 9.14L236.26 9.14Q237.65 9.62 238.54 10.06Q239.42 10.49 240.05 11.22Q240.67 11.95 240.67 13.06L240.67 13.06Q240.67 14.64 239.38 15.62Q238.08 16.61 235.44 16.61L235.44 16.61Z" transform="translate(0, 52)"></path></svg>